<?xml version="1.0" encoding="utf-8"?>
<!-- Generator: Adobe Illustrator 23.1.0, SVG Export Plug-In . SVG Version: 6.00 Build 0)  -->
<svg version="1.1" id="Calque_1" xmlns="http://www.w3.org/2000/svg" xmlns:xlink="http://www.w3.org/1999/xlink" x="0px" y="0px"
	 viewBox="0 0 500 500" style="enable-background:new 0 0 500 500;" xml:space="preserve">
<g>
	<path d="M219.4,228.7H112c-4.7,0-8.4-3.8-8.4-8.4V110.1c0-14.1,11.4-25.5,25.5-25.5H237c5.9,0,10.8,4.8,10.8,10.8v105
		C247.7,216,235.1,228.7,219.4,228.7z"/>
</g>
<g>
	<path d="M218.8,408H111.4c-4.7,0-8.4-3.8-8.4-8.4V289.4c0-14.1,11.4-25.5,25.5-25.5h107.9c5.9,0,10.8,4.8,10.8,10.8v105
		C247.1,395.3,234.4,408,218.8,408z"/>
</g>
<g>
	<path d="M387.2,228.7H279.7c-4.7,0-8.4-3.8-8.4-8.4V110.1c0-14.1,11.4-25.5,25.5-25.5h107.9c5.9,0,10.8,4.8,10.8,10.8v105
		C415.4,216,402.8,228.7,387.2,228.7z"/>
</g>
<g>
	<path d="M386.5,408H279.1c-4.7,0-8.4-3.8-8.4-8.4V289.4c0-14.1,11.4-25.5,25.5-25.5H404c5.9,0,10.8,4.8,10.8,10.8v105
		C414.8,395.3,402.1,408,386.5,408z"/>
</g>
</svg>
