<?xml version="1.0" encoding="UTF-8"?>
<svg width="186px" height="200px" viewBox="0 0 186 200" version="1.1" xmlns="http://www.w3.org/2000/svg" xmlns:xlink="http://www.w3.org/1999/xlink">
    <title>Symbol_Primary</title>
    <defs>
        <path d="M65.0057987,0 L65.4800261,0.00644125033 C68.166797,0.0794411316 70.8403743,0.772915631 73.2764677,2.08603608 L73.7038557,2.32419537 L98.4944778,16.6013955 L98.403,16.621 L121.301943,29.8096277 L121.622394,29.9987247 C126.709619,33.0742132 129.869188,38.5333644 129.996031,44.4662458 L130,44.8376505 L130,99.6696881 L129.996031,100.041094 C129.869188,105.974019 126.709619,111.434237 121.622394,114.509769 L121.301943,114.698868 L73.698057,142.114887 L73.2769794,142.349922 C70.8854134,143.641788 68.2656229,144.334119 65.6280684,144.429375 L65.1333702,144.440239 L64.8666298,144.440239 L64.3994067,144.430345 C61.7617315,144.339236 59.1410894,143.65106 56.747941,142.363357 L56.301943,142.114887 L8.69805699,114.698868 L8.37753868,114.509769 C3.28928902,111.434237 0.130767507,105.974019 0.00396748301,100.041094 L0,99.6696881 L0,44.8376505 L0.00396748301,44.4662458 C0.0118924845,44.0954407 0.0316601481,43.7264861 0.0630014324,43.3598484 L0.0688411084,43.2918268 C0.539021994,37.7957036 3.61212272,32.8186982 8.37640812,29.9347426 L8.70385569,29.7413711 L56.3077417,2.32419537 C58.9983407,0.775117419 62.0020697,0 65.0057987,0 Z M18.9190858,79.3922693 L18.9190858,93.6613712 C18.9190858,94.933952 19.8167252,96.5061678 20.9138402,97.1563409 L41.6349314,109.428648 C42.7320463,110.078821 43.6262066,109.568632 43.6227375,108.297208 L43.5867754,93.855729 C43.5832962,92.5831481 42.6810177,91.014403 41.5804236,90.3700144 L20.9184791,78.2515741 C19.8190447,77.6060286 18.9190858,78.1196885 18.9190858,79.3922693 Z M111.221359,79.3922693 C111.221359,78.1196885 110.3214,77.6060286 109.221965,78.2515741 L109.221965,78.2515741 L88.5600211,90.3700144 C87.4594269,91.014403 86.5571485,92.5831481 86.5536692,93.855729 L86.5536692,93.855729 L86.5177072,108.297208 C86.5142381,109.568632 87.4083983,110.078821 88.5055132,109.428648 L88.5055132,109.428648 L109.226604,97.1563409 C110.323719,96.5061678 111.221359,94.933952 111.221359,93.6613712 L111.221359,93.6613712 Z M111.451988,48.1837282 C111.466876,46.9111474 110.578514,46.3986444 109.47908,47.0441899 L109.47908,47.0441899 L67.1972452,71.8814972 C66.0989705,72.5281997 64.2990526,72.5281997 63.2007779,71.8814972 L63.2007779,71.8814972 L20.918943,47.0441899 C19.8183489,46.3986444 18.9195497,46.9111474 18.9195497,48.1837282 L18.9195497,48.1837282 L18.9195497,66.693995 C18.9195497,67.9677327 19.8183489,69.5364778 20.918943,70.1820233 L20.918943,70.1820233 L63.2007779,95.0193306 C64.2990526,95.6660331 66.096651,95.6637193 67.1949257,95.0147031 L67.1949257,95.0147031 L109.225097,70.1878078 C110.322212,69.5387916 111.232608,67.9677327 111.246525,66.693995 L111.246525,66.693995 Z" id="path-1"></path>
        <linearGradient x1="49.9999599%" y1="100%" x2="49.9999599%" y2="9.27127907e-05%" id="linearGradient-3">
            <stop stop-color="#F0B118" offset="0%"></stop>
            <stop stop-color="#E62B19" offset="100%"></stop>
        </linearGradient>
        <linearGradient x1="49.9998195%" y1="-0.000241349396%" x2="49.9998195%" y2="99.4578192%" id="linearGradient-4">
            <stop stop-color="#F0B118" offset="0%"></stop>
            <stop stop-color="#EF6A14" offset="100%"></stop>
        </linearGradient>
    </defs>
    <g id="Symbol_Primary" stroke="none" stroke-width="1" fill="none" fill-rule="evenodd">
        <g id="Group-3" transform="translate(28.000000, 28.000000)">
            <mask id="mask-2" fill="white">
                <use xlink:href="#path-1"></use>
            </mask>
            <g id="Combined-Shape"></g>
            <path d="M56.301943,2.39360887 L8.69805699,29.8096277 C3.31453958,32.9089405 0,38.637868 0,44.8376505 L0,44.8376505 L0,99.6696881 C0,105.869471 3.31453958,111.599555 8.69805699,114.698868 L8.69805699,114.698868 L56.301943,142.114887 C58.9531108,143.64314 61.9069709,144.417101 64.8666298,144.440239 L64.8666298,144.440239 L65.1333702,144.440239 C68.0930291,144.417101 71.0468892,143.64314 73.698057,142.114887 L73.698057,142.114887 L121.301943,114.698868 C126.684301,111.599555 130,105.869471 130,99.6696881 L130,99.6696881 L130,44.8376505 C130,38.637868 126.684301,32.9089405 121.301943,29.8096277 L121.301943,29.8096277 L73.698057,2.39360887 C71.007458,0.842217136 68.003729,0.0670997169 65,0.0670997169 L65,0.0670997169 C61.996271,0.0670997169 58.992542,0.842217136 56.301943,2.39360887" id="Fill-1" fill="url(#linearGradient-3)" mask="url(#mask-2)"></path>
            <path d="M56.3077417,2.32419537 L8.70385569,29.7413711 C3.32265777,32.8406838 0.00579870466,38.5707683 0.00579870466,44.7693939 L0.00579870466,44.7693939 L0.00579870466,99.6025883 C0.00579870466,105.802371 3.32265777,111.531298 8.70385569,114.631768 L8.70385569,114.631768 L37.5582101,131.24936 L55.1120488,141.358279 C37.2473995,119.602932 32.3625707,90.0223684 42.4441986,64.1068381 L42.4441986,64.1068381 C57.1415954,26.3296975 95.503506,17.2550393 98.4944778,16.6013955 L98.4944778,16.6013955 L73.7038557,2.32419537 C71.0132567,0.775117419 68.0095277,0 65.0057987,0 L65.0057987,0 C62.0020697,0 58.9983407,0.775117419 56.3077417,2.32419537" id="Fill-4" fill="url(#linearGradient-4)" mask="url(#mask-2)"></path>
        </g>
    </g>
</svg>