<?xml version="1.0" encoding="utf-8"?>
<!-- Generator: Adobe Illustrator 23.1.0, SVG Export Plug-In . SVG Version: 6.00 Build 0)  -->
<svg version="1.1" id="Calque_1" xmlns="http://www.w3.org/2000/svg" xmlns:xlink="http://www.w3.org/1999/xlink" x="0px" y="0px"
	 viewBox="0 0 500 500" style="enable-background:new 0 0 500 500;" xml:space="preserve">
<g>
	<path d="M-46.4,236h-354.2c-4.2,0-7.6-3.4-7.6-7.6v-36.7c0-15.9,12.9-28.8,28.8-28.8h357.7c2.9,0,5.3,2.4,5.3,5.3V206
		C-16.4,222.6-29.9,236-46.4,236z"/>
</g>
<g>
	<path d="M-454.2,236h-36.3c-4.7,0-8.4-3.8-8.4-8.4v-39.1c0-14.1,11.4-25.5,25.5-25.5h36.8c5.9,0,10.8,4.8,10.8,10.8v34
		C-425.9,223.4-438.6,236-454.2,236z"/>
</g>
<g>
	<path d="M477.5,596.5H131.1c-12.6,0-22.7-10.2-22.7-22.7v-27.5c0-12.6,10.2-22.7,22.7-22.7h346.3c12.6,0,22.7,10.2,22.7,22.7v27.5
		C500.2,586.3,490,596.5,477.5,596.5z"/>
</g>
<g>
	<path d="M68,596.5H40.5c-12.6,0-22.7-10.2-22.7-22.7v-27.5c0-12.6,10.2-22.7,22.7-22.7H68c12.6,0,22.7,10.2,22.7,22.7v27.5
		C90.8,586.3,80.6,596.5,68,596.5z"/>
</g>
<g>
	<path d="M477.5,688.3H131.1c-12.6,0-22.7-10.2-22.7-22.7V638c0-12.6,10.2-22.7,22.7-22.7h346.3c12.6,0,22.7,10.2,22.7,22.7v27.5
		C500.2,678.1,490,688.3,477.5,688.3z"/>
</g>
<g>
	<path d="M68,688.3H40.5c-12.6,0-22.7-10.2-22.7-22.7V638c0-12.6,10.2-22.7,22.7-22.7H68c12.6,0,22.7,10.2,22.7,22.7v27.5
		C90.8,678.1,80.6,688.3,68,688.3z"/>
</g>
<g>
	<path d="M-46.8,326.9H-401c-4.2,0-7.6-3.4-7.6-7.6v-36.7c0-15.9,12.9-28.8,28.8-28.8h357.7c2.9,0,5.3,2.4,5.3,5.3v37.7
		C-16.8,313.5-30.2,326.9-46.8,326.9z"/>
</g>
<g>
	<path d="M-454.5,326.9h-36.3c-4.7,0-8.4-3.8-8.4-8.4v-39.1c0-14.1,11.4-25.5,25.5-25.5h36.8c5.9,0,10.8,4.8,10.8,10.8v34
		C-426.2,314.2-438.9,326.9-454.5,326.9z"/>
</g>
<g>
	<path d="M-46.8,417.9H-401c-4.2,0-7.6-3.4-7.6-7.6v-36.7c0-15.9,12.9-28.8,28.8-28.8h357.7c2.9,0,5.3,2.4,5.3,5.3v37.7
		C-16.8,404.5-30.2,417.9-46.8,417.9z"/>
</g>
<g>
	<path d="M-454.5,417.9h-36.3c-4.7,0-8.4-3.8-8.4-8.4v-39.1c0-14.1,11.4-25.5,25.5-25.5h36.8c5.9,0,10.8,4.8,10.8,10.8v34
		C-426.2,405.2-438.9,417.9-454.5,417.9z"/>
</g>
<g>
	<path d="M219.4,228.7H112c-4.7,0-8.4-3.8-8.4-8.4V110.1c0-14.1,11.4-25.5,25.5-25.5h107.9c5.9,0,10.8,4.8,10.8,10.8v105
		C247.7,216,235.1,228.7,219.4,228.7z"/>
</g>
<g>
	<path d="M218.8,408H111.4c-4.7,0-8.4-3.8-8.4-8.4V289.4c0-14.1,11.4-25.5,25.5-25.5h107.9c5.9,0,10.8,4.8,10.8,10.8v105
		C247.1,395.3,234.4,408,218.8,408z"/>
</g>
<g>
	<path d="M387.2,228.7H279.7c-4.7,0-8.4-3.8-8.4-8.4V110.1c0-14.1,11.4-25.5,25.5-25.5h107.9c5.9,0,10.8,4.8,10.8,10.8v105
		C415.4,216,402.8,228.7,387.2,228.7z"/>
</g>
<g>
	<path d="M386.5,408H279.1c-4.7,0-8.4-3.8-8.4-8.4V289.4c0-14.1,11.4-25.5,25.5-25.5H404c5.9,0,10.8,4.8,10.8,10.8v105
		C414.8,395.3,402.1,408,386.5,408z"/>
</g>
</svg>
